<?xml version="1.0" standalone="no"?>
<!DOCTYPE svg PUBLIC "-//W3C//DTD SVG 20010904//EN"
 "http://www.w3.org/TR/2001/REC-SVG-20010904/DTD/svg10.dtd">
<svg version="1.0" xmlns="http://www.w3.org/2000/svg"
 width="1408.000000pt" height="768.000000pt" viewBox="0 0 1408.000000 768.000000"
 preserveAspectRatio="xMidYMid meet">

<g transform="translate(0.000000,768.000000) scale(0.100000,-0.100000)"
fill="#000000" stroke="none">
<path d="M7915 6300 c-277 -18 -677 -86 -875 -149 -89 -28 -105 -30 -250 -30
-277 0 -501 -64 -686 -197 -121 -86 -201 -216 -230 -372 -16 -87 -18 -92 -55
-118 -82 -56 -142 -144 -155 -223 -6 -39 -17 -49 -213 -210 -225 -183 -286
-244 -295 -294 -7 -36 17 -139 39 -174 8 -12 19 -52 25 -90 6 -37 23 -95 36
-128 48 -114 49 -118 31 -203 -25 -115 -22 -215 9 -314 33 -105 70 -178 90
-178 8 0 38 12 66 26 29 15 127 45 220 68 l168 42 -28 -31 c-15 -16 -61 -66
-103 -110 -160 -168 -235 -268 -294 -390 -69 -141 -89 -233 -89 -400 -1 -136
1 -143 38 -255 57 -171 149 -324 300 -500 l79 -91 -42 -112 c-23 -62 -57 -152
-76 -202 -46 -120 -95 -267 -95 -283 0 -10 37 -12 172 -10 l173 3 32 90 c18
50 58 160 87 245 65 184 179 466 231 570 59 117 106 179 209 277 109 103 212
163 356 207 200 61 348 60 760 -4 87 -13 296 -13 373 0 106 19 197 49 197 66
0 8 -7 28 -15 44 l-15 28 -72 -19 c-125 -32 -305 -23 -479 25 l-84 23 156 75
c451 217 790 552 1031 1018 47 91 49 93 44 50 -4 -25 -13 -99 -21 -165 -35
-303 -148 -637 -303 -898 -154 -260 -347 -463 -598 -629 -204 -136 -500 -253
-754 -301 -225 -42 -297 -49 -505 -48 l-200 1 -12 -27 c-20 -48 -64 -205 -59
-210 2 -3 109 -5 238 -5 242 -1 406 15 639 62 290 59 646 218 882 396 70 53
180 148 243 212 276 279 456 599 584 1037 87 297 125 745 99 1155 -8 118 -13
262 -13 320 3 268 3 1325 0 1328 -8 8 -872 10 -991 2z m761 -503 l6 -267 -64
-69 c-65 -70 -79 -96 -214 -413 -16 -38 -31 -68 -34 -68 -3 0 -15 42 -27 93
-63 262 -280 555 -552 744 -75 52 -207 123 -284 153 -41 16 -65 30 -57 33 23
8 321 46 435 56 55 4 254 8 442 7 l343 -1 6 -268z m-2232 117 c-104 -73 -172
-140 -250 -245 -47 -63 -72 -88 -92 -92 -15 -3 -35 -9 -44 -12 -15 -6 -15 -1
3 46 58 151 191 269 378 335 36 13 70 24 75 24 4 0 -27 -25 -70 -56z m846 -37
c193 -46 342 -114 518 -240 268 -191 408 -410 444 -693 11 -85 10 -96 -12
-174 -29 -102 -68 -162 -197 -301 -134 -145 -251 -241 -415 -342 -72 -45 -220
-118 -225 -113 -2 2 7 38 19 82 30 108 33 418 5 534 -43 181 -152 390 -271
518 -45 47 -80 93 -80 101 1 9 12 43 24 76 18 49 21 73 17 130 -3 39 -9 81
-13 94 -7 23 -6 24 36 17 112 -18 273 -108 374 -209 151 -152 276 -422 316
-686 17 -111 21 -124 32 -113 16 16 22 189 9 293 -42 361 -221 656 -491 812
-93 53 -287 97 -429 97 -140 0 -320 -63 -430 -150 -48 -38 -55 -41 -96 -34
-25 3 -45 10 -45 13 0 4 16 29 36 54 78 101 210 186 364 235 94 30 101 31 260
27 108 -3 172 -10 250 -28z m-368 -336 c28 -25 32 -35 36 -94 4 -58 1 -71 -27
-124 -47 -87 -60 -101 -72 -83 -5 8 -7 24 -4 35 34 127 38 154 26 169 -19 23
-93 20 -151 -5 l-50 -21 -35 30 -35 31 30 21 c53 38 142 69 197 70 44 0 58 -5
85 -29z m-564 -120 c85 -31 139 -68 224 -153 83 -83 162 -194 221 -313 55
-109 186 -518 211 -655 2 -14 13 -74 25 -135 11 -60 22 -128 23 -150 2 -32 8
-17 27 75 32 158 39 356 16 470 -47 237 -90 392 -129 468 -20 39 -20 66 0 83
13 11 26 2 95 -70 113 -118 191 -240 228 -353 44 -138 54 -207 48 -306 -7
-112 -29 -197 -78 -298 -53 -112 -102 -162 -234 -236 -130 -72 -186 -112 -319
-227 -165 -143 -385 -427 -538 -696 -70 -123 -213 -410 -251 -506 -19 -47 -42
-99 -50 -115 l-15 -29 -11 45 c-7 25 -16 58 -21 74 -19 58 -11 224 15 331 43
170 89 253 393 701 163 243 253 473 277 709 6 63 -15 241 -39 331 l-13 51 52
51 53 52 21 -77 c25 -94 51 -289 51 -382 0 -37 -7 -118 -15 -181 -11 -85 -12
-116 -4 -121 10 -6 143 -29 169 -29 20 0 32 92 32 250 0 91 -4 192 -10 225 -6
33 -16 94 -23 135 -12 78 -39 160 -91 272 l-31 68 17 52 c9 29 19 81 22 115
l7 63 -66 30 c-37 16 -69 30 -71 30 -3 0 -8 -21 -11 -47 -15 -115 -65 -231
-129 -302 -38 -42 -127 -103 -187 -127 -32 -13 -108 -36 -169 -50 -60 -14
-110 -28 -110 -31 0 -4 18 -21 39 -40 56 -47 93 -127 99 -213 4 -61 1 -76 -22
-125 -52 -105 -185 -183 -399 -235 -67 -17 -148 -37 -181 -45 -32 -9 -60 -14
-62 -12 -2 2 -9 39 -15 81 -9 65 -8 91 6 152 9 41 19 74 23 74 4 0 39 -13 79
-29 118 -49 264 -92 297 -89 63 6 103 121 54 152 -13 7 -58 17 -101 20 -224
19 -387 106 -387 206 0 34 6 43 41 72 89 71 137 120 160 163 27 50 23 60 -15
45 -32 -12 -256 -14 -256 -2 0 10 84 93 132 129 78 60 324 261 335 274 6 8 14
34 18 59 10 63 27 91 83 141 53 47 178 114 252 135 68 18 148 17 208 -5z
m2319 -258 c-6 -192 -28 -381 -62 -531 -29 -128 -107 -338 -179 -487 -173
-357 -411 -627 -728 -825 -262 -163 -623 -279 -945 -303 -61 -5 -61 -3 -39 78
81 299 357 574 656 654 165 44 286 36 448 -29 l97 -39 30 30 30 30 -40 36
c-45 40 -201 118 -260 131 l-39 8 35 20 c180 107 434 348 563 535 148 215 222
363 323 644 56 155 97 245 112 245 2 0 1 -89 -2 -197z m-2323 -750 c43 -216
30 -362 -51 -547 -20 -45 -53 -112 -75 -149 -40 -69 -233 -330 -296 -401 -46
-51 -151 -214 -196 -304 -79 -158 -104 -252 -115 -437 l-6 -110 -38 101 c-49
133 -61 200 -53 307 17 227 134 425 427 722 273 278 385 524 335 738 -20 87
-21 84 12 95 42 16 50 14 56 -15z"/>
<path d="M6025 5176 c-35 -16 -56 -38 -81 -87 -11 -20 -35 -60 -55 -90 -19
-30 -51 -81 -69 -114 l-34 -60 34 23 c120 78 170 103 231 113 44 8 91 26 149
58 47 27 101 54 120 61 19 7 39 16 43 20 10 9 -100 47 -163 56 -25 4 -57 13
-72 20 -33 17 -64 17 -103 0z m114 -23 c44 -41 46 -100 5 -138 -75 -70 -193
16 -149 108 29 61 96 75 144 30z"/>
<path d="M8033 4046 c-30 -14 -83 -79 -83 -102 0 -15 45 -34 82 -34 51 0 115
37 149 87 17 24 28 47 25 50 -13 14 -142 13 -173 -1z"/>
</g>
</svg>
